<svg xmlns="http://www.w3.org/2000/svg" viewBox="0 0 596.72 104.88"><defs><style>.cls-1{fill:#208fed;}.cls-2{fill:#fda900;}.cls-3{fill:#fff;}.cls-4{fill:#fcfcfc;}.cls-5{fill:#fdfdfd;}.cls-6{fill:#fcfcfd;}.cls-7{fill:#fafafb;}.cls-8{fill:#fbfbfb;}.cls-9{fill:#f9f9f9;}.cls-10{fill:#f6f6f6;}.cls-11{fill:#f4f4f4;}.cls-12{fill:#dfdfe1;}</style></defs><g id="Layer_2" data-name="Layer 2"><g id="Layer_1-2" data-name="Layer 1"><path class="cls-1" d="M51.73,74.37c0-.1-.06-.21-.1-.31A22.47,22.47,0,0,0,30.19,58.32H0v44.95H30.19A22.49,22.49,0,0,0,51.81,87a1.21,1.21,0,0,1,0-.18,22.71,22.71,0,0,0,.81-6A22.37,22.37,0,0,0,51.73,74.37ZM47.14,87.09H29A6.3,6.3,0,0,1,29,74.5h5.15A6.3,6.3,0,0,0,35.45,87H50.17C49.17,87.05,48.16,87.09,47.14,87.09Z"/><path class="cls-2" d="M34.18,16.18H29a6.3,6.3,0,0,0,0,12.59H47.14a22.13,22.13,0,0,1,4.49.45A22.5,22.5,0,0,1,30.19,45H0V0H30.19A22.48,22.48,0,0,1,51.73,16.06c.05.14.09.29.13.44a22.66,22.66,0,0,1,.81,6,22.3,22.3,0,0,1-.86,6.16H35.45a6.3,6.3,0,0,1-1.27-12.46Z"/><path class="cls-3" d="M89,51.51A35.5,35.5,0,0,1,53.56,87H35.45A6.3,6.3,0,0,1,34.18,74.5a6.67,6.67,0,0,1,1.27-.13H53.56a22.87,22.87,0,1,0,0-45.73H35.45a6.3,6.3,0,0,1-1.27-12.46,6.67,6.67,0,0,1,1.27-.12H53.56A35.5,35.5,0,0,1,89,51.51Z"/><path class="cls-4" d="M154.34,35.16c-8.7-8.78-21.2-8.79-31.92.88,0-6-.27-11,.07-16,.32-4.72-2.76-4.06-5.44-3.84s-6.23-1.75-6.16,3.67c.19,17.57,0,35.15.09,52.74,0,1.2-.46,2.6,1,3.48,3.68,2.14,10.12-.63,11.14-4.84C134.21,80,146.86,79.7,155,70.5,163.65,60.75,163.33,44.24,154.34,35.16Zm-18.49,32c-7.77.06-13.45-5.88-13.43-14.05S128.26,38.89,135.84,39a14,14,0,0,1,13.63,14.18A13.7,13.7,0,0,1,135.85,67.18Z"/><path class="cls-5" d="M461,49.2c4.71-5,8.82-8.47,11.69-12.74,5.24-7.82,12.61-6.95,21.18-6.23-5.42,5.69-10.09,11.15-15.36,16-4.08,3.71-4.74,6.39-.61,10.67,5.52,5.74,10.29,12.21,15.92,19-7.95.83-15,2-19.35-6.12a27.24,27.24,0,0,0-4.57-5.64c-1.36-1.41-2.37-4.7-4.19-3.78-2.42,1.21-4.87,3.54-4.71,7a20.06,20.06,0,0,0,0,2.8c1,5.32-1.45,6.54-6.38,6.3-3.67-.17-5.19-.77-5.13-4.91.24-16.82.37-33.66-.05-50.47-.14-5.43,2.6-4.88,6.12-5,3.68-.13,5.79.17,5.54,4.93C460.67,29.88,461,38.79,461,49.2Z"/><path class="cls-5" d="M543.1,28.65c-14.46,0-25.21,10.38-25.27,24.29s11.08,25,25.4,24.94,25.35-11,25.27-25.08C568.42,38.91,557.59,28.6,543.1,28.65ZM543,67.7c-8.08-.2-13.38-6.09-13.28-14.78s5.32-14.2,13.66-14.17c8.14,0,13.34,5.76,13.26,14.59S551,67.9,543,67.7Z"/><path class="cls-5" d="M363.05,28.65C348.29,28.58,337.26,39,337.25,53s11.29,25,25.55,24.85,25-10.71,25.16-24.62S377.46,28.72,363.05,28.65Zm-.3,39.07c-8,0-13.55-5.93-13.56-14.5,0-8.82,5.22-14.47,13.42-14.47s13.58,5.75,13.66,14.35S370.7,67.7,362.75,67.72Z"/><path class="cls-6" d="M419.44,28.5c11.24.15,19.58,5.69,22.74,14.82,1.07,3.12.71,4.44-2.95,4.32-4-.13-7.58.34-10.31-4.28-3.22-5.46-11-6.53-16.49-3.53-5.69,3.1-8.5,10.94-6.39,18.15,1.54,5.26,4.89,8.74,10.43,9.7s10.43-.57,13-5.44c3-5.57,7.67-3.47,11.76-3.48,2.75,0,1.37,2.42.94,3.81-2.9,9.45-12.32,15.53-23.56,15.3-14.62-.3-25.42-11.13-25.11-25.18C393.85,38.33,404.58,28.3,419.44,28.5Z"/><path class="cls-5" d="M285.89,28.6c7.47.08,14.23,1.56,17.74,9.15.95,2,2.71,5.45-.05,6.22s-7.49,2.46-9.5-1.43c-2.56-4.94-6.48-5.11-10.87-4.62a4.66,4.66,0,0,0-4.43,4.33c-.31,2.77,1.24,4.14,3.73,4.69,4.91,1.09,9.84,2.06,14.71,3.26,5.81,1.44,8.64,5.46,9.25,11.24.64,6.06-1.69,10.84-7.06,13.41a29.39,29.39,0,0,1-24.41.81A12.58,12.58,0,0,1,268.26,70c-1.23-2.33-3.47-4.88-1.14-7.54,1.4-1.6,9.06.17,10.48,2,3,4,10.24,5.33,14.63,2.74a4.47,4.47,0,0,0,2.42-4.62,3.93,3.93,0,0,0-3.42-3.84c-4-.82-8.09-1.38-12.09-2.26-9.06-2-12.31-6.1-11.89-14.73.36-7.21,5.34-12,13.61-12.95C282.53,28.65,284.22,28.67,285.89,28.6Z"/><path class="cls-5" d="M200.26,71.05a17.85,17.85,0,0,1-13.66,6.8,17.07,17.07,0,0,1-17.77-15.91c-.63-9.69-.22-19.44-.42-29.16-.09-4.43,3.11-2.52,5.1-2.89,5-.93,6.82,1,6.43,6.22-.5,6.7-.21,13.46-.1,20.2s4,10.91,10.11,10.87S200,63,200.08,56.24c.15-7.48.35-15-.05-22.44-.29-5.29,3.15-3.85,5.8-3.88s5.9-1.31,5.73,3.95c-.39,12.15,0,24.32-.23,36.47,0,2.13,2.27,5.89-3,6C201.83,76.58,201.42,76.55,200.26,71.05Z"/><path class="cls-5" d="M263.35,30.19c-7.48,19.37-14.75,38.27-22.08,57.14-1,2.47-10.23,4.36-11.67,2.42-.92-1.22-.12-2.57.54-3.64,4.59-7.42,3.26-14.46-.14-22.08-4.9-11-8.81-22.4-13.16-33.67a8.77,8.77,0,0,1,1.54-.44c9.77-.47,9.78-.47,13.36,8.73q3.73,9.62,7.47,19.24a18,18,0,0,0,1.07,1.65c2.73-7,5.3-13.6,7.83-20.19C251.93,29.41,251.91,29.4,263.35,30.19Z"/><path class="cls-7" d="M320.77,19.42c5-1.31,6.44,1.08,5.74,5.58-.61,3.87.88,5.51,4.84,4.89,3.52-.56,3.3,1.86,3.26,4.2s.41,5.25-3.48,4.64c-4.28-.66-4.84,1.55-4.68,5.13.26,5.77.18,11.56,0,17.33-.09,3.42.87,5.28,4.71,5.06,5.42-.31,2.88,4,3.37,6.39.6,3-1,3.69-3.81,3.75-10.09.2-15.44-4.61-15.68-14.61-.13-5.41.12-10.82-.09-16.22-.11-2.7,1.58-5.91-3.12-7.56-1.85-.64-2-7,.14-7.63,3.62-1.12,3.2-3.11,3-5.32C314.54,20.58,315.74,18.11,320.77,19.42Z"/><path class="cls-5" d="M577.22,52.72c0-3,.1-6,0-9-.09-2.13,1.21-5-3-5.19-1.42,0-1.91-8.38-.67-8.38,5.24,0,3.88-3.77,3.58-6.28-.62-5.17,2.56-4.61,5.83-4.64s6.55-.32,5.64,4.71c-.77,4.21.23,6.82,5.39,6,3.66-.59,2.46,2.46,2.45,4.18,0,1.92,1.22,5.18-2.72,4.57-4.9-.77-5.4,1.72-5.21,5.65.26,5.6.19,11.23,0,16.83-.11,3.48.94,5.27,4.74,5.08,5.62-.28,2.57,4.12,3.18,6.44.77,2.93-.79,3.68-3.66,3.7-10.27.08-15.32-4.54-15.54-14.69C577.17,58.71,577.22,55.71,577.22,52.72Z"/><path class="cls-8" d="M510.62,46.34c0,8.58-.29,17.18.11,25.74.25,5.55-3.33,4-6.22,4.25-3.26.25-5.55.19-5.47-4.45q.43-25.75,0-51.5c-.1-5.54,3.35-4,6.24-4.25,3.28-.27,5.65-.16,5.45,4.46C510.35,29.16,510.62,37.76,510.62,46.34Z"/><path class="cls-9" d="M572.91,96.13V95c0-6.45,3.84-9.19,10.05-6.74,2,.78,3.17,1.29,5.34.15,3.79-2,7.56.26,8.07,4.58a71.83,71.83,0,0,1,.12,8.93c0,1.11.09,2.3-1.61,2.3-1.5,0-2.55-.38-2.54-2.13,0-2.24,0-4.47,0-6.71,0-1.94-.08-4-2.75-3.88s-2.78,2-2.81,4c0,2.24,0,4.47,0,6.71,0,1.37-.6,2-2,2s-1.9-.8-1.9-2.1c0-2.43,0-4.85-.05-7.27-.08-1.84-.8-3.33-3-3.31s-2.66,1.68-2.7,3.47c-.05,2.23-.05,4.47,0,6.71,0,1.52-.46,2.44-2.2,2.5-2,.08-2-1.14-2-2.51C572.92,99.85,572.91,98,572.91,96.13Z"/><path class="cls-10" d="M561.18,87.56a8.71,8.71,0,0,0-8.61,8.5,8.59,8.59,0,0,0,8.9,8.77,8.65,8.65,0,1,0-.29-17.27Zm.17,13.51c-3.22,0-4.57-2.1-4.51-5.13,0-2.86,1.55-4.57,4.47-4.58,3.08,0,4.77,1.66,4.89,4.89C566,99.23,564.51,101.13,561.35,101.07Z"/><path class="cls-11" d="M542.78,104.88c-4.55-.3-8-1.88-9.16-6.33-1.12-4.26.09-8,4.21-9.9s8-1.54,11.26,1.93c.73.79,1.81,1.94,1.11,2.93-.82,1.16-2.38.85-3.54.18-.78-.45-1.27-1.42-2.06-1.82-2.22-1.14-4.47-1-6.05,1a5.06,5.06,0,0,0,.14,6.71,4.29,4.29,0,0,0,6.07.71c1.81-1.24,4-3.76,5.27-1.19,1,2-1.93,4-4.28,5A22.78,22.78,0,0,1,542.78,104.88Z"/><path class="cls-12" d="M527.52,104.28a1.76,1.76,0,0,1-1.82-2.17,2.1,2.1,0,0,1,4.17.42A2,2,0,0,1,527.52,104.28Z"/></g></g></svg>